<svg xmlns="http://www.w3.org/2000/svg" width="50px" height="50px" viewBox="0 0 126.54 145.62">
  <path fill="#e6e3da" d="M60.64,0q48.47-1.39,65.5,44a9.55,9.55,0,0,1-1.5,8.5q-8.48-.3-17,0a31.8,31.8,0,0,0-12,11,90.25,90.25,0,0,0-15-1,15.87,15.87,0,0,0-9,5.5q8.82,31.67,18.5,63a2.5,2.5,0,0,0,4,0,43.2,43.2,0,0,1,.5-10.5q6.67-5.1,12.5.5,4.38,17.1-11.5,24.5Q82,146.61,76.14,134,69,102.15,59.64,71a15.65,15.65,0,0,0-11,.5,51.68,51.68,0,0,0-9,8,60.9,60.9,0,0,0-18-1,57.94,57.94,0,0,0-13,8.5,8.51,8.51,0,0,1-6.5-6Q-7,42,22.64,15.54l22-13Q52.8,1,60.64,0Z"/>
  <path fill="#f8f6f4" d="M67.64,67a5.75,5.75,0,0,1-3,1q-11.43-4.7-22,2.5a25.26,25.26,0,0,1-6.5,5.5q-16.22-6.18-27.5,7-13-35.61,14-62.5a158.28,158.28,0,0,1,25-15Q101.24-4.8,122.14,45q1.56,7-4.5,3.5-15.12-2.19-23,11a43.29,43.29,0,0,0-15-1A17.8,17.8,0,0,0,67.64,67Z"/>
  <path fill="#775c47" d="M47.64,7q13.2.21-.5,4l-1.5-1C46.34,9,47,8,47.64,7Z"/>
  <path fill="#42b2a8" d="M57.64,9q45.08-6.19,62,36.5-15.42-2.67-25.5,9.5a86.7,86.7,0,0,0-25.5-41.5A20.13,20.13,0,0,0,57.64,9Z"/>
  <path fill="#ed9c53" d="M65.64,64q-6.73-26.48-13-53a17.87,17.87,0,0,1,14,3.5,81.13,81.13,0,0,1,25,41.5Q76.34,52.7,65.64,64Z"/>
  <path fill="#ebc26a" d="M50.64,14q6.27,24.56,13,49a3.08,3.08,0,0,1-3,1q-13.89-2.18-23.5,8a90,90,0,0,1-1-44,34.14,34.14,0,0,1,9.5-15.5l2.5-.5A2.65,2.65,0,0,1,50.64,14Z"/>
  <path fill="#ee676e" d="M40.64,13a2.44,2.44,0,0,1,2,.5A35.9,35.9,0,0,0,32.14,34a140.43,140.43,0,0,0,2.5,38q-14.13-3.78-25,6Q-.21,33.26,40.64,13Z"/>
  <path fill="#fbf2e2" d="M52.64,11q6.27,26.52,13,53a3.87,3.87,0,0,1-5,0,3.08,3.08,0,0,0,3-1q-6.73-24.45-13-49Z"/>
  <path fill="#765c47" d="M67.64,67q6.51,24.06,13,48a6.83,6.83,0,0,1-4,1q-7-24.24-12-48A5.75,5.75,0,0,0,67.64,67Z"/>
  <path fill="#694b2e" d="M80.64,115a89.85,89.85,0,0,1,3.5,13,28.76,28.76,0,0,0,4.5,7.5q12.77.54,9-12a20.34,20.34,0,0,1,6-1.5q2.92,13.41-9,19.5-10.67.89-14.5-9.5a69.86,69.86,0,0,1-3.5-16A6.83,6.83,0,0,0,80.64,115Z"/>
</svg>